ffmpeg version 2.8.4-tessus Copyright (c) 2000-2015 the FFmpeg developers
  built with Apple LLVM version 6.0 (clang-600.0.57) (based on LLVM 3.5svn)
  configuration: --cc=/usr/bin/clang --prefix=/opt/ffmpeg --as=yasm --extra-version=tessus --enable-avisynth --enable-fontconfig --enable-gpl --enable-libass --enable-libbluray --enable-libfreetype --enable-libgsm --enable-libmodplug --enable-libmp3lame --enable-libopencore-amrnb --enable-libopencore-amrwb --enable-libopus --enable-libschroedinger --enable-libsoxr --enable-libspeex --enable-libtheora --enable-libvidstab --enable-libvo-aacenc --enable-libvo-amrwbenc --enable-libvorbis --enable-libvpx --enable-libwavpack --enable-libx264 --enable-libx265 --enable-libxavs --enable-libxvid --enable-libzmq --enable-version3 --disable-ffplay --disable-indev=qtkit --disable-indev=x11grab_xcb
  libavutil      54. 31.100 / 54. 31.100
  libavcodec     56. 60.100 / 56. 60.100
  libavformat    56. 40.101 / 56. 40.101
  libavdevice    56.  4.100 / 56.  4.100
  libavfilter     5. 40.101 /  5. 40.101
  libswscale      3.  1.101 /  3.  1.101
  libswresample   1.  2.101 /  1.  2.101
  libpostproc    53.  3.100 / 53.  3.100
Input #0, matroska,webm, from '/Applications/MAMP/tmp/php/phpo0KWJd':
  Metadata:
    encoder         : whammy
  Duration: 00:00:00.44, start: 0.000000, bitrate: 554 kb/s
    Stream #0:0: Video: vp8, yuv420p, 180x135, SAR 1:1 DAR 4:3, 50 fps, 50 tbr, 1k tbn, 1k tbc (default)
Input #1, matroska,webm, from '/Applications/MAMP/tmp/php/phpY18QI3':
  Metadata:
    encoder         : whammy
  Duration: 00:00:00.62, start: 0.000000, bitrate: 1796 kb/s
    Stream #1:0: Video: vp8, yuv420p, 180x135, SAR 1:1 DAR 4:3, 50 fps, 50 tbr, 1k tbn, 1k tbc (default)
[libvpx-vp9 @ 0x7ffcbb008600] v1.3.0
Output #0, webm, to 'tmp/EZ2llDHvQF.webm':
  Metadata:
    encoder         : Lavf56.40.101
    Stream #0:0: Video: vp9 (libvpx-vp9), yuv420p, 320x320 [SAR 1:1 DAR 1:1], q=-1--1, 200 kb/s, 50 fps, 1k tbn, 50 tbc (default)
    Metadata:
      encoder         : Lavc56.60.100 libvpx-vp9
Stream mapping:
  Stream #0:0 (vp8) -> scale
  Stream #1:0 (vp8) -> scale
  concat -> Stream #0:0 (libvpx-vp9)
Press [q] to stop, [?] for help
frame=   47 fps=0.0 q=0.0 size=       3kB time=00:00:00.46 bitrate=  56.7kbits/s    frame=   53 fps= 25 q=0.0 Lsize=      16kB time=00:00:01.06 bitrate= 119.9kbits/s    
video:15kB audio:0kB subtitle:0kB other streams:0kB global headers:0kB muxing overhead: 5.388188%
